<svg viewBox="0 0 60 90" fill="none" stroke="currentColor" stroke-width="1.3" stroke-linecap="round" stroke-linejoin="round" xmlns="http://www.w3.org/2000/svg" aria-hidden="true">
  <path d="M30 86 C 30 64, 28 40, 34 14" />
  <path d="M33 22 C 22 18, 16 22, 14 30 C 24 32, 31 30, 33 22 Z" />
  <path d="M32 36 C 43 32, 49 36, 51 44 C 41 46, 34 44, 32 36 Z" />
  <path d="M31 52 C 20 48, 14 52, 12 60 C 22 62, 29 60, 31 52 Z" />
  <path d="M30 66 C 41 62, 47 66, 49 74 C 39 76, 32 74, 30 66 Z" />
  <circle cx="34" cy="13" r="3.4" fill="currentColor" stroke="none" />
  <circle cx="27" cy="9" r="2.6" fill="currentColor" stroke="none" />
</svg>
